<?xml version="1.0" encoding="utf-8"?>
<!-- Generator: Adobe Illustrator 25.3.1, SVG Export Plug-In . SVG Version: 6.00 Build 0)  -->
<svg version="1.1" id="Слой_1" xmlns="http://www.w3.org/2000/svg" xmlns:xlink="http://www.w3.org/1999/xlink" x="0px" y="0px"
	 viewBox="0 0 27 35" style="enable-background:new 0 0 27 35;" xml:space="preserve">
<g>
	<path d="M14,0C6.83,0,1,5.93,1,13.21c0,3.01,2.08,7.47,6.19,13.26c3,4.23,6.04,7.67,6.07,7.7L14,35l0.73-0.83
		c0.03-0.03,3.07-3.48,6.07-7.7C24.92,20.68,27,16.22,27,13.21C27,5.93,21.17,0,14,0z M14,31.99C10.35,27.72,2.97,18.07,2.97,13.21
		C2.97,7.03,7.92,2,14,2s11.03,5.03,11.03,11.21C25.03,18.07,17.65,27.72,14,31.99z"/>
	<ellipse cx="14" cy="13.21" rx="4.9" ry="4.97"/>
</g>
</svg>
